<?xml version="1.0" standalone="no"?>
<!DOCTYPE svg PUBLIC "-//W3C//DTD SVG 20010904//EN"
 "http://www.w3.org/TR/2001/REC-SVG-20010904/DTD/svg10.dtd">
<svg version="1.0" xmlns="http://www.w3.org/2000/svg"
 width="594.000000pt" height="664.000000pt" viewBox="0 0 594.000000 664.000000"
 preserveAspectRatio="xMidYMid meet">

<g transform="translate(0.000000,664.000000) scale(0.100000,-0.100000)"
fill="#000000" stroke="none">
<path d="M0 3320 l0 -3320 336 0 c350 0 343 -1 308 40 -6 8 -33 55 -58 105
-41 80 -62 107 -194 240 -95 95 -168 179 -201 229 -50 78 -51 82 -51 153 0 60
-4 79 -22 103 -30 41 -30 115 0 155 l22 30 -20 70 c-16 55 -18 76 -9 97 16 38
272 269 337 302 54 28 125 15 162 -29 14 -17 89 -59 95 -53 2 2 -16 14 -41 27
-54 29 -57 45 -6 34 20 -4 52 -6 70 -5 17 1 32 -2 32 -7 0 -6 17 -26 38 -47
24 -24 30 -34 17 -29 -44 16 -87 26 -91 22 -3 -3 15 -12 40 -20 67 -23 136
-74 152 -114 16 -37 10 -88 -20 -188 -8 -27 -14 -49 -13 -50 1 0 16 -11 32
-25 l30 -25 -22 25 c-22 27 -22 28 14 178 8 34 18 27 35 -25 9 -27 28 -79 41
-118 21 -58 27 -101 36 -255 13 -222 24 -268 87 -384 46 -83 145 -210 160
-204 4 2 8 -9 8 -24 1 -15 10 -36 20 -47 27 -30 32 -18 7 17 -27 39 -27 51 2
26 12 -11 56 -40 97 -64 130 -75 122 -68 118 -106 -5 -41 9 -46 18 -6 40 171
134 525 143 534 3 4 3 -43 -2 -105 -4 -62 -9 -183 -10 -269 -3 -154 -3 -158
17 -158 17 1 18 2 6 9 -19 12 -19 156 -1 386 21 270 -2 973 -30 923 -5 -8 -3
-55 3 -104 7 -49 12 -188 13 -309 0 -121 5 -228 9 -237 15 -32 -11 -19 -42 19
-42 54 -68 110 -91 193 -35 125 -44 103 -11 -26 22 -85 69 -172 113 -210 l28
-24 -30 -111 c-17 -62 -34 -115 -38 -118 -4 -3 -9 -15 -11 -26 -12 -89 -22
-137 -36 -163 -9 -17 -16 -44 -16 -61 0 -16 -4 -41 -10 -55 l-9 -25 -68 36
c-150 80 -198 126 -189 181 2 18 30 75 61 126 50 85 56 102 65 177 5 46 15
127 21 179 6 52 14 136 18 185 8 92 30 155 73 202 28 30 48 158 48 309 0 67 3
149 7 184 l6 63 28 -59 29 -59 -4 40 c-2 22 -15 117 -29 210 -45 296 -84 808
-72 935 4 41 10 152 14 245 6 153 10 176 32 225 42 91 99 145 99 94 0 -8 -13
-32 -29 -52 -54 -70 -64 -112 -72 -312 -5 -102 -11 -214 -15 -250 -6 -58 2
-182 37 -560 6 -63 19 -162 30 -219 10 -58 19 -128 19 -155 0 -28 5 -69 10
-91 15 -63 40 -244 40 -294 0 -25 9 -97 20 -160 11 -62 20 -148 21 -190 1 -71
16 -157 18 -106 1 11 -4 81 -10 155 -15 175 -14 176 25 267 53 122 63 159 80
300 19 155 59 280 143 448 93 187 89 189 97 -31 5 -154 3 -199 -9 -244 -63
-229 -70 -294 -81 -816 l-7 -331 68 -22 c38 -11 74 -21 80 -21 7 0 20 36 30
88 15 71 19 168 26 537 7 462 13 545 34 545 9 0 10 -13 4 -47 -4 -27 -8 -64
-7 -83 0 -23 3 -14 9 25 4 33 11 72 13 88 4 19 1 27 -9 27 -8 0 -15 5 -15 10
0 6 9 10 20 10 17 0 20 7 20 40 0 29 -4 40 -15 40 -8 0 -15 5 -15 11 0 28 22
156 30 174 12 26 18 85 10 85 -9 0 -1 97 11 135 7 21 6 31 -2 34 -27 9 -189
164 -270 257 -109 126 -199 256 -305 441 -79 137 -95 173 -76 173 4 0 45 -73
92 -161 47 -88 124 -215 172 -282 92 -128 221 -277 241 -277 6 0 -15 26 -47
59 -32 32 -74 81 -94 110 -20 28 -62 86 -93 129 -31 42 -95 153 -143 246 -81
160 -99 205 -76 191 5 -3 57 6 115 21 77 19 108 24 118 16 7 -6 19 -42 26 -79
19 -97 31 -114 105 -153 36 -19 66 -38 66 -42 0 -4 -37 -25 -82 -47 -46 -22
-77 -40 -70 -40 16 -1 212 88 232 105 9 7 42 25 75 40 120 53 143 65 160 84
11 12 31 20 49 20 18 0 49 9 71 20 50 25 51 25 31 -5 -25 -39 -65 -155 -87
-257 -11 -51 -31 -132 -45 -180 -13 -47 -28 -119 -34 -160 -14 -101 -51 -258
-62 -258 -12 0 -10 23 6 61 7 19 19 88 25 154 7 66 21 171 32 233 19 106 20
116 4 154 -11 29 -14 56 -9 98 4 34 2 60 -3 63 -18 11 -40 -89 -67 -308 -22
-168 -22 -203 -2 -262 l18 -53 -27 -56 c-23 -49 -25 -57 -11 -67 20 -16 36
-61 36 -104 0 -27 -3 -34 -15 -29 -9 3 -15 0 -15 -10 0 -10 -6 -14 -14 -11
-12 5 -13 -2 -9 -31 3 -20 9 -41 13 -47 8 -10 -21 -225 -39 -285 -6 -19 -18
-93 -27 -165 -17 -132 -17 -203 5 -680 l6 -140 8 85 c5 51 3 124 -3 182 -16
138 -17 467 -2 562 7 44 21 116 31 160 30 130 46 276 31 286 -9 5 -9 9 -1 14
6 4 11 18 11 31 0 12 7 25 15 29 10 3 15 19 15 48 0 24 9 75 19 113 11 39 26
117 35 175 14 90 51 236 88 345 5 17 20 76 33 132 37 160 100 274 121 219 3
-8 -6 -31 -20 -53 -37 -57 -62 -145 -76 -264 -14 -116 -7 -238 30 -584 11
-100 24 -266 30 -370 6 -105 15 -226 20 -270 5 -44 15 -174 21 -290 5 -115 14
-237 18 -270 8 -54 9 -49 7 45 l-1 105 73 150 c131 268 516 969 546 994 16 14
72 -38 181 -170 90 -106 146 -195 181 -284 15 -38 53 -122 84 -185 98 -198
109 -232 108 -342 -1 -52 2 -100 6 -107 4 -6 16 -48 27 -92 10 -44 30 -115 44
-157 25 -75 26 -82 19 -263 -7 -199 3 -301 35 -341 l17 -20 40 20 c49 25 191
130 220 163 12 13 26 38 32 54 l10 30 11 -30 c6 -16 16 -37 21 -45 36 -53 48
-94 43 -154 -3 -33 -12 -68 -19 -77 -8 -8 -14 -20 -14 -25 0 -5 5 -2 11 6 9
12 10 11 4 -5 -4 -11 -9 -33 -12 -50 -9 -54 -13 -40 -13 43 0 44 3 83 8 86 10
6 2 96 -8 96 -15 0 -40 -31 -65 -80 -21 -42 -22 -49 -10 -67 8 -11 17 -49 20
-84 3 -35 8 -80 11 -100 4 -26 1 -39 -12 -50 -9 -8 -20 -12 -23 -9 -3 3 -7 -4
-10 -15 -2 -11 -7 -23 -13 -26 -5 -3 -4 -17 2 -35 8 -20 8 -30 1 -32 -14 -5
-14 -39 -1 -47 6 -3 10 3 10 14 0 12 5 21 10 21 6 0 10 -9 10 -21 0 -11 4 -17
10 -14 5 3 10 -3 10 -14 0 -22 16 -29 22 -10 2 6 19 9 38 7 l35 -3 -34 -18
c-38 -21 -87 -16 -77 8 3 9 -1 15 -9 15 -8 0 -15 -9 -15 -19 0 -14 9 -21 38
-26 67 -11 142 -2 142 17 0 6 -9 8 -19 5 -14 -3 -18 -1 -14 10 3 7 11 11 17 8
6 -3 19 -8 29 -11 10 -4 16 -12 13 -19 -5 -15 26 -15 36 0 5 6 8 5 8 -2 0 -8
15 -13 40 -13 22 0 40 5 40 10 0 6 8 10 18 10 14 0 15 -2 2 -10 -11 -7 -5 -10
23 -10 36 0 52 20 27 35 -17 10 -11 25 9 25 10 0 21 7 24 14 4 11 1 13 -10 9
-10 -4 -14 -2 -10 4 9 14 -2 43 -15 43 -6 0 -5 -6 2 -15 10 -12 9 -16 -5 -21
-13 -6 -14 -9 -3 -16 9 -6 6 -7 -9 -3 -15 4 -25 0 -32 -12 -6 -10 -11 -13 -11
-6 0 7 10 22 23 34 l22 21 -22 15 c-13 9 -23 26 -23 39 0 13 -4 24 -10 24 -5
0 -10 5 -10 11 0 6 7 9 15 5 17 -6 22 29 5 39 -6 3 -7 -1 -4 -10 5 -11 2 -14
-10 -9 -19 7 -23 -25 -5 -43 6 -6 8 -17 3 -24 -25 -40 -44 174 -20 223 22 42
51 153 75 283 12 61 37 162 57 225 20 63 38 121 40 129 3 8 16 -2 34 -27 16
-23 42 -48 57 -56 30 -15 219 -66 321 -86 37 -8 61 -17 59 -24 -3 -11 -134
-101 -350 -240 -59 -38 -105 -71 -103 -73 2 -2 46 22 97 55 52 32 137 85 189
117 52 32 122 81 154 109 l59 50 36 -41 c20 -23 48 -45 63 -48 18 -5 25 -11
21 -22 -5 -11 -1 -14 13 -10 10 3 34 8 52 12 17 4 32 10 32 14 0 4 24 25 53
46 61 46 142 128 165 168 9 15 22 25 28 23 6 -2 11 1 11 7 -1 35 4 57 13 57 5
0 28 -25 51 -56 31 -42 42 -68 45 -103 5 -50 23 -71 61 -71 l23 0 0 2864 0
2865 -27 19 c-16 11 -51 31 -80 46 l-52 26 -2891 0 -2890 0 0 -3320z m3075
3050 c372 -25 639 -162 812 -417 143 -210 298 -538 364 -772 29 -103 39 -172
19 -126 -5 11 -19 44 -31 73 -12 28 -25 52 -30 52 -5 0 1 -21 12 -47 20 -47
69 -218 68 -238 0 -5 -15 31 -33 80 -34 93 -65 159 -66 138 0 -13 75 -267 134
-453 74 -228 142 -571 134 -667 -2 -29 -6 -18 -17 52 -25 162 -135 595 -148
582 -2 -2 8 -55 22 -118 43 -195 134 -692 164 -894 25 -171 47 -403 39 -411
-3 -3 -23 5 -45 19 -46 29 -80 40 -200 66 -169 36 -321 124 -384 221 -18 27
-34 48 -36 47 -2 -2 -14 -41 -28 -87 -26 -88 -85 -224 -93 -216 -2 3 3 23 12
46 27 68 17 68 -19 0 -48 -89 -73 -112 -44 -40 34 84 75 252 99 405 11 76 19
140 17 142 -3 2 -17 -36 -32 -84 -25 -80 -79 -203 -90 -203 -2 0 10 39 26 88
34 100 75 299 88 422 4 47 7 87 5 89 -2 2 -61 -55 -131 -126 -164 -165 -411
-377 -379 -324 6 9 5 12 -5 9 -8 -3 -14 -10 -14 -16 0 -5 -4 -14 -9 -19 -5 -5
-6 -3 -2 5 9 15 1 15 -25 1 -11 -5 -17 -14 -14 -19 4 -6 -1 -7 -11 -3 -13 5
-15 3 -9 -7 5 -8 4 -11 -3 -6 -6 3 -49 -16 -96 -44 -51 -30 -97 -50 -115 -50
-16 0 -33 -5 -37 -11 -7 -11 -62 -8 -96 6 -11 4 -18 0 -23 -14 -10 -31 -49
-37 -83 -12 -16 11 -44 22 -61 23 -18 1 -37 8 -43 15 -6 7 -18 13 -27 13 -9 0
-22 10 -30 22 -13 21 -13 21 -27 -11 -9 -21 -19 -31 -28 -28 -7 3 -19 0 -25
-6 -9 -9 -14 -8 -22 3 -8 11 -12 12 -16 3 -2 -7 -13 -13 -22 -13 -13 0 -25
-21 -46 -81 -29 -83 -42 -100 -122 -159 l-40 -29 -13 24 c-12 23 -11 28 16 62
27 34 29 41 17 63 -9 18 -21 25 -45 26 -18 1 -27 -1 -20 -3 8 -3 -17 -34 -64
-79 -43 -41 -78 -73 -78 -71 -1 1 -16 18 -34 38 -33 36 -33 37 -23 94 7 35 21
69 36 87 21 24 25 40 23 72 -2 33 -7 41 -22 39 -11 -1 -30 3 -42 7 -16 7 -28
5 -37 -5 -13 -12 -18 -11 -38 11 -15 16 -26 21 -33 14 -7 -7 -6 -14 2 -22 7
-7 12 -17 12 -22 -1 -6 -9 -1 -19 11 -25 30 -50 15 -27 -18 21 -30 20 -39 -3
-39 -11 0 -21 -8 -23 -17 -2 -10 -12 -18 -23 -18 -16 0 -20 -6 -18 -30 0 -16
-1 -24 -4 -17 -7 18 -23 15 -24 -5 0 -12 -2 -13 -6 -5 -4 10 -8 10 -19 1 -8
-6 -14 -17 -14 -23 0 -6 -11 -11 -25 -11 -17 0 -25 6 -25 17 0 23 119 156 191
214 55 44 71 64 50 64 -5 0 -12 24 -15 54 -6 42 -12 56 -31 66 -27 15 -38 46
-24 71 14 27 11 108 -7 174 -12 46 -15 88 -10 178 3 64 2 117 -2 117 -4 0 -18
-21 -32 -47 -40 -75 -104 -148 -171 -192 -85 -57 -96 -51 -17 8 72 55 119 114
167 209 l32 63 -21 62 c-63 183 -17 452 129 752 49 100 61 134 70 207 34 262
140 469 290 570 25 17 75 62 110 100 35 38 84 80 110 92 25 13 57 36 71 51 38
41 106 85 179 116 75 32 118 35 346 19z m-1084 -2850 c-9 -23 -10 -23 -10 11
-1 20 2 39 7 43 11 12 14 -27 3 -54z m-55 -33 c-9 -13 -18 -45 -21 -72 -8 -79
-22 -72 -22 10 0 60 3 75 14 71 8 -3 19 5 26 21 9 20 13 22 15 11 2 -9 -4 -28
-12 -41z m-1129 23 c120 -16 171 -26 211 -46 65 -32 103 -79 108 -136 l4 -43
-11 42 c-12 49 -52 88 -107 102 -54 14 -322 35 -369 29 -118 -16 -147 -61
-163 -249 -6 -68 -17 -176 -25 -239 -8 -63 -17 -131 -19 -150 -2 -19 -9 -64
-15 -100 -5 -36 -15 -110 -21 -165 -6 -55 -18 -138 -26 -185 -8 -47 -14 -118
-12 -159 l3 -73 50 -19 c33 -12 76 -19 125 -19 81 0 289 -25 299 -36 3 -4 -25
-4 -64 0 -38 3 -124 6 -190 6 -254 2 -261 0 -231 -45 9 -14 27 -30 39 -36 19
-8 17 -9 -8 -4 -16 3 -38 16 -49 28 -17 20 -18 33 -11 142 4 66 13 190 21 275
7 85 23 272 34 415 38 499 42 525 83 585 28 41 62 67 113 85 51 18 47 18 231
-5z m1971 -105 c1 -1 -26 -22 -60 -46 -34 -24 -72 -54 -86 -67 -30 -29 -37
-23 -41 29 -1 23 -9 77 -17 118 -7 42 -14 76 -14 77 0 1 214 -108 218 -111z
m147 49 c-11 -8 -31 -23 -45 -34 -140 -106 -177 -130 -205 -130 -29 0 -28 1
24 36 90 61 225 143 236 143 6 0 1 -6 -10 -15z m-1090 -38 c-9 -20 -12 -48 -9
-65 7 -34 -10 -42 -35 -18 -11 10 -13 9 -8 -5 5 -14 -1 -19 -29 -24 -19 -3
-38 -4 -41 0 -6 6 21 10 41 7 5 -1 6 5 3 13 -3 8 7 26 24 43 16 15 36 40 45
56 20 38 26 34 9 -7z m165 -135 c0 -3 14 -22 30 -41 39 -46 111 -152 106 -157
-2 -2 -20 4 -40 15 -19 11 -32 22 -29 26 4 4 -1 4 -12 0 -14 -6 -17 -4 -13 8
4 10 1 15 -9 14 -15 -1 -39 53 -57 126 -5 22 -3 26 9 22 8 -4 15 -9 15 -13z
m-1243 -1454 c2 -136 2 -139 29 -163 39 -37 22 -40 -28 -6 -64 44 -83 45 -122
6 -14 -15 -26 -36 -26 -48 0 -21 59 -87 90 -100 8 -3 -3 -4 -25 -1 -22 2 -71
20 -110 39 -77 38 -177 58 -155 31 7 -8 23 -15 36 -15 34 0 30 -12 -14 -37
-39 -22 -85 -59 -166 -133 l-49 -45 6 31 c5 27 17 137 33 303 5 42 12 61 39
90 l34 36 128 0 c144 0 162 -6 239 -77 25 -23 47 -38 50 -36 6 7 -98 93 -136
113 -22 11 -26 19 -22 44 3 23 10 31 26 32 19 1 19 2 2 6 -15 4 -16 7 -5 14
10 6 10 9 2 9 -20 0 -15 38 5 43 9 2 44 3 77 3 l60 -1 2 -138z m3 -194 c30
-20 49 -38 42 -41 -6 -2 -24 6 -39 18 -16 11 -39 30 -53 40 -44 34 -7 21 50
-17z m3924 -738 c-7 -26 -8 -27 -20 -10 -8 11 -14 14 -14 9 0 -6 5 -15 10 -20
8 -8 5 -34 -8 -85 -33 -128 -42 -169 -42 -189 0 -12 -6 -23 -14 -26 -8 -3 -11
-15 -8 -30 2 -14 0 -35 -6 -47 -32 -71 -54 -225 -40 -291 12 -57 12 -59 22
-75 7 -10 6 -12 -4 -6 -10 6 -12 4 -6 -10 5 -15 4 -16 -9 -5 -9 8 -13 22 -9
39 l5 26 -14 -23 c-13 -22 -14 -22 -28 -6 -12 16 -12 17 4 11 11 -4 17 -1 17
9 0 8 -4 12 -10 9 -5 -3 -10 0 -10 7 0 15 -51 19 -61 5 -4 -5 -12 -6 -18 -2
-19 11 -1 95 20 95 6 0 5 -8 -1 -19 -5 -11 -10 -23 -10 -28 1 -4 8 6 17 22 10
18 18 25 21 17 2 -7 -2 -20 -10 -29 -8 -10 -8 -14 -1 -10 6 4 14 3 18 -3 3 -5
1 -10 -5 -10 -6 0 -8 -5 -4 -11 4 -7 10 -7 16 -1 6 6 7 16 2 24 -5 7 -7 20 -6
30 2 9 -2 19 -8 23 -14 9 -13 48 2 63 12 12 28 162 28 247 -1 22 -10 70 -22
108 -20 67 -23 195 -5 213 4 4 24 0 45 -8 34 -13 45 -13 103 1 35 9 65 16 67
15 2 -1 0 -14 -4 -29z m-348 -703 c-19 -4 -24 -33 -11 -59 14 -26 25 -21 18 7
-3 11 -10 17 -16 13 -6 -3 -7 -1 -3 5 10 17 36 3 29 -16 -5 -11 -2 -14 10 -9
23 9 12 -14 -18 -36 -23 -16 -24 -16 -18 -1 4 12 3 15 -5 10 -8 -5 -10 -2 -6
8 3 9 1 16 -4 16 -17 0 -24 37 -12 60 6 11 15 18 21 15 5 -4 9 0 9 7 0 9 3 9
10 -2 7 -11 5 -16 -4 -18z m141 -18 c-3 -3 -12 -4 -19 -1 -8 3 -5 6 6 6 11 1
17 -2 13 -5z m-67 -75 c0 -4 11 -10 25 -13 14 -4 25 -11 25 -17 0 -8 -5 -7
-15 1 -8 7 -15 8 -15 3 0 -5 -23 -11 -51 -12 -45 -1 -49 0 -36 13 8 8 23 13
33 12 11 -2 13 -1 6 1 -7 3 -10 8 -8 12 6 10 36 10 36 0z"/>
<path d="M2388 5958 c-22 -33 -58 -106 -58 -115 1 -4 8 6 17 22 30 55 65 95
85 95 10 0 16 5 13 10 -11 18 -42 11 -57 -12z"/>
<path d="M2201 5905 c-81 -87 -151 -229 -191 -390 -17 -65 -29 -123 -27 -129
4 -12 55 60 86 121 11 23 41 95 66 159 25 64 67 158 93 210 27 52 46 94 42 94
-4 0 -35 -29 -69 -65z"/>
<path d="M2943 5925 c-44 -19 -42 -26 4 -13 20 5 55 7 78 4 48 -8 152 -55 178
-81 10 -9 21 -15 24 -12 9 10 -49 55 -111 87 -66 33 -121 38 -173 15z"/>
<path d="M3120 5937 c0 -3 20 -17 45 -32 25 -14 84 -60 131 -102 46 -42 87
-73 90 -70 10 9 -129 142 -176 169 -46 26 -90 43 -90 35z"/>
<path d="M3308 5853 c6 -11 19 -26 28 -34 24 -20 114 -134 159 -202 56 -84 56
-60 0 33 -54 88 -119 168 -167 201 -29 21 -30 21 -20 2z"/>
<path d="M3349 5708 c87 -88 132 -172 166 -305 38 -150 100 -282 121 -260 5 4
3 51 -4 103 -11 86 -18 108 -72 212 -33 65 -76 138 -95 164 -34 46 -160 158
-178 158 -5 0 23 -33 62 -72z"/>
<path d="M3230 5665 c0 -2 13 -11 29 -19 39 -21 57 -63 81 -196 24 -134 50
-217 88 -281 29 -50 132 -172 139 -165 2 2 -25 48 -62 102 -81 122 -123 228
-136 343 -13 125 -17 135 -52 168 -40 38 -87 64 -87 48z"/>
<path d="M2196 5642 c-3 -5 8 -6 25 -4 16 2 29 6 29 8 0 8 -49 4 -54 -4z"/>
<path d="M3001 5636 c2 -3 35 -10 73 -16 78 -12 159 -50 181 -83 8 -13 22 -48
31 -78 9 -30 19 -58 24 -64 4 -5 13 -28 20 -50 7 -22 15 -35 17 -28 5 15 -35
168 -53 204 -21 41 -70 77 -127 93 -53 15 -175 31 -166 22z"/>
<path d="M2510 5485 c0 -9 9 -41 20 -72 11 -31 18 -58 16 -60 -2 -3 -20 11
-39 31 -37 37 -47 37 -47 -1 0 -18 -6 -23 -24 -23 -14 0 -28 -5 -32 -11 -4 -7
-16 -1 -33 15 -29 28 -41 26 -41 -7 0 -14 -4 -17 -17 -12 -10 5 -47 18 -83 30
l-65 22 -29 -28 c-16 -16 -37 -31 -47 -34 -24 -8 -30 -65 -17 -154 8 -56 8
-76 0 -79 -21 -7 -13 -29 19 -56 32 -27 61 -31 132 -19 35 5 40 11 67 69 16
35 31 72 35 83 8 27 78 98 105 106 11 3 20 10 20 15 0 5 8 14 18 19 27 14 107
-25 92 -45 -9 -10 -5 -16 17 -28 15 -8 37 -29 48 -46 20 -30 111 -115 172
-159 23 -17 46 -24 87 -25 31 0 56 -5 56 -10 0 -23 123 18 170 56 51 42 63
113 35 193 -9 24 -11 41 -5 43 18 7 10 33 -19 62 -23 24 -37 29 -82 31 -78 2
-363 -16 -376 -24 -19 -12 -96 48 -121 92 -25 44 -32 50 -32 26z m413 -242
c-7 -2 -21 -2 -30 0 -10 3 -4 5 12 5 17 0 24 -2 18 -5z m-66 -55 c-3 -7 -5 -2
-5 12 0 14 2 19 5 13 2 -7 2 -19 0 -25z m93 -23 c-7 -8 -17 -15 -22 -15 -11 0
14 29 26 30 5 0 3 -7 -4 -15z m-650 1 c0 -3 -4 -8 -10 -11 -5 -3 -10 -1 -10 4
0 6 5 11 10 11 6 0 10 -2 10 -4z m600 -12 c0 -2 -7 -4 -15 -4 -8 0 -15 4 -15
10 0 5 7 7 15 4 8 -4 15 -8 15 -10z"/>
<path d="M3395 5390 c13 -81 184 -359 214 -348 5 1 -32 66 -83 143 -51 77
-102 163 -115 190 -20 46 -22 47 -16 15z"/>
<path d="M1872 5100 c-82 -208 -119 -444 -92 -584 7 -36 16 -69 21 -71 4 -3
17 26 29 64 53 178 84 405 78 576 l-3 100 -33 -85z"/>
<path d="M3670 5134 c0 -30 8 -65 20 -89 12 -24 20 -59 20 -92 0 -50 -1 -53
-44 -82 -42 -29 -56 -56 -48 -94 2 -10 9 -17 15 -16 28 3 37 -2 37 -23 0 -30
11 -45 32 -45 38 1 44 260 9 392 -27 99 -41 117 -41 49z"/>
<path d="M3342 4972 c81 -84 89 -106 95 -240 8 -175 23 -183 19 -10 -3 123 -6
152 -22 177 -18 28 -129 131 -141 131 -3 0 19 -26 49 -58z"/>
<path d="M3432 4972 c54 -60 61 -78 54 -139 -7 -57 7 -73 24 -28 5 14 14 25
19 25 5 0 14 13 20 28 9 22 9 35 -1 58 -12 29 -13 29 -16 -21 -4 -63 -22 -86
-22 -28 0 50 -35 101 -95 135 -11 6 -4 -7 17 -30z"/>
<path d="M2180 4983 c0 -9 8 -26 17 -37 10 -12 4 -9 -13 7 -16 15 -33 27 -37
27 -15 0 -6 -34 18 -62 15 -18 25 -42 25 -61 l0 -32 -19 41 c-13 28 -33 49
-66 68 -25 15 -49 25 -52 23 -3 -3 17 -29 43 -58 27 -29 37 -44 22 -33 -14 12
-39 35 -53 52 -26 31 -50 36 -39 8 3 -8 1 -17 -5 -21 -22 -13 -10 -43 29 -75
52 -43 64 -82 56 -190 -6 -78 -4 -89 14 -113 l21 -26 -21 -11 c-11 -6 -20 -17
-20 -25 0 -8 -4 -15 -10 -15 -5 0 -10 6 -10 14 0 8 -7 17 -16 20 -22 9 -8 -34
19 -55 18 -15 20 -24 15 -90 -6 -82 2 -147 15 -116 3 10 9 55 13 100 7 85 25
142 50 151 18 7 18 1 -2 -29 -11 -17 -19 -62 -24 -133 -5 -59 -7 -108 -5 -110
10 -11 28 83 26 140 -2 71 17 128 44 128 18 0 18 -8 0 -40 -8 -14 -14 -52 -15
-86 0 -33 -7 -83 -15 -110 -14 -49 -14 -49 4 -25 28 37 41 90 41 168 0 72 10
93 43 93 14 0 17 -4 12 -17 -12 -29 -24 -87 -35 -164 -7 -48 -22 -92 -46 -138
-35 -65 -35 -66 -6 -33 16 18 42 58 58 89 23 47 29 71 30 137 1 45 3 87 3 93
1 19 71 45 103 38 34 -8 35 -10 57 -89 24 -88 74 -216 84 -216 10 0 0 118 -14
176 -6 24 -26 61 -45 83 -22 26 -30 41 -22 44 45 14 78 -42 103 -173 24 -130
64 -279 64 -245 1 17 -10 84 -24 150 -13 65 -23 121 -20 123 2 2 -5 27 -15 55
-11 28 -18 52 -16 54 8 9 45 -57 74 -132 17 -44 46 -114 65 -155 19 -41 43
-101 52 -132 16 -57 29 -76 39 -60 6 11 -21 118 -40 154 -18 34 -5 36 25 4 58
-61 176 -125 231 -125 21 0 18 4 -18 19 -106 48 -260 178 -297 252 -14 29 -39
75 -55 101 -28 44 -28 47 -7 36 27 -15 167 -154 167 -167 0 -20 79 -45 122
-38 30 4 39 3 28 -4 -11 -7 -3 -10 30 -10 48 0 107 24 205 84 44 26 71 36 102
36 41 0 63 13 43 25 -5 3 -31 8 -57 11 -44 5 -53 2 -118 -41 -80 -53 -158 -95
-177 -95 -7 1 15 14 48 29 64 30 99 61 53 47 -13 -4 -44 -10 -69 -13 l-45 -5
75 37 c116 57 170 76 235 83 63 7 62 6 57 63 -1 9 -16 22 -33 30 -31 12 -31
13 -9 21 19 7 21 13 16 40 -3 18 -12 35 -19 40 -26 16 -50 34 -84 66 -27 24
-45 32 -73 32 -60 0 -155 -34 -203 -74 -24 -19 -64 -45 -89 -56 -55 -24 -61
-32 -79 -92 -7 -27 -16 -48 -20 -48 -18 0 -41 41 -35 64 6 25 72 72 140 100
21 9 60 32 86 51 55 41 113 63 171 67 45 2 62 16 30 25 -23 6 -28 19 -9 25 6
2 0 15 -16 31 -15 15 -24 32 -21 37 3 6 -3 10 -14 10 -14 0 -19 5 -15 15 3 8
-1 22 -10 31 -23 22 -60 11 -111 -34 -23 -20 -62 -48 -86 -61 l-44 -25 48 54
c27 30 55 66 62 81 11 20 25 29 55 34 22 4 43 11 46 17 4 5 22 16 40 24 19 8
34 21 34 29 0 20 -75 20 -110 0 -14 -8 -50 -15 -80 -15 -59 0 -87 -11 -76 -29
10 -16 -56 -71 -141 -116 -59 -31 -84 -51 -110 -90 -63 -91 -162 -195 -188
-195 -29 0 -37 20 -29 71 6 35 10 39 35 39 27 0 28 -2 19 -27 -10 -27 -9 -27
23 7 17 19 53 52 80 73 54 44 127 146 133 187 7 44 -33 85 -85 85 -22 0 -46
-6 -53 -13 -9 -9 -3 -12 31 -12 60 0 81 -14 81 -53 0 -36 -16 -64 -69 -120
-31 -34 -79 -67 -96 -67 -18 0 1 31 35 59 49 40 77 86 55 95 -17 6 -102 -85
-121 -130 -7 -17 -22 -34 -33 -37 -52 -13 -146 34 -157 79 -7 27 3 138 16 185
5 16 5 27 0 24 -4 -2 -13 2 -20 10 -16 20 -30 19 -30 -2z m665 -119 c-58 -51
-81 -72 -125 -119 -25 -27 -71 -65 -103 -86 -75 -48 -127 -95 -127 -113 0 -8
-13 -15 -35 -18 -19 -2 -35 0 -35 6 0 5 26 35 58 66 31 32 76 80 100 108 26
32 60 59 90 72 26 12 67 38 92 59 25 21 55 41 65 44 44 11 49 6 20 -19z m-704
-80 c15 -37 17 -59 12 -139 -4 -70 -3 -98 7 -110 7 -8 10 -19 6 -23 -4 -4 -16
4 -27 16 -17 22 -18 35 -12 141 5 105 4 120 -13 146 -11 17 -13 26 -6 21 8 -5
22 -28 33 -52z m839 -8 c0 -2 -24 -21 -52 -42 -79 -57 -149 -117 -143 -122 2
-3 10 0 17 6 7 5 29 19 48 30 19 10 52 29 73 42 23 14 35 17 32 9 -3 -8 -33
-31 -68 -53 -108 -66 -216 -150 -217 -167 0 -11 -8 -16 -23 -15 -18 1 -23 6
-19 19 4 16 -1 18 -34 15 -56 -4 -52 23 6 42 57 19 148 70 192 109 31 27 178
131 185 131 2 0 3 -2 3 -4z m-788 -116 c-1 -65 2 -100 9 -100 7 0 10 29 8 85
-5 107 13 108 25 2 9 -82 24 -108 17 -31 -2 25 2 51 8 57 8 8 11 0 12 -28 0
-22 4 -49 9 -60 7 -16 9 -12 15 23 11 62 25 61 23 -2 -1 -50 -4 -55 -27 -59
-14 -3 -29 0 -33 6 -5 8 -8 6 -8 -6 0 -15 -3 -16 -20 -7 -14 7 -20 7 -20 0 0
-18 -29 -10 -41 11 -7 14 -9 47 -4 98 14 154 29 160 27 11z m544 34 c-28 -25
-78 -62 -113 -82 -34 -20 -61 -38 -59 -40 8 -7 103 47 146 83 48 40 140 90
140 76 0 -15 -153 -124 -228 -162 -40 -20 -79 -42 -86 -48 -20 -17 -30 4 -11
22 10 11 11 17 3 19 -9 3 238 177 252 177 3 0 -17 -20 -44 -45z m306 -109
c-40 -19 -86 -44 -102 -55 -53 -37 -32 -12 25 31 50 37 93 56 135 58 8 0 -18
-15 -58 -34z m-82 21 c0 -2 -8 -10 -17 -17 -16 -13 -17 -12 -4 4 13 16 21 21
21 13z m-40 -31 c0 -3 -23 -30 -50 -61 -28 -30 -55 -66 -60 -79 -5 -13 -18
-29 -29 -34 -16 -9 -21 -7 -26 9 -8 26 9 56 43 74 15 8 47 33 72 55 47 42 50
44 50 36z m100 -149 c0 -4 -33 -26 -109 -73 -21 -13 -51 -22 -71 -22 l-35 1
41 8 c22 5 69 27 104 49 63 41 70 45 70 37z m-1 -59 c-19 -15 -79 -47 -79 -43
0 8 62 46 74 46 5 0 7 -1 5 -3z m-122 -63 c-3 -3 -12 -4 -19 -1 -8 3 -5 6 6 6
11 1 17 -2 13 -5z m-19 -61 c-10 -2 -26 -2 -35 0 -10 3 -2 5 17 5 19 0 27 -2
18 -5z"/>
<path d="M1967 4893 c-5 -9 -3 -23 8 -64 4 -17 1 -30 -9 -38 -28 -23 -20 -96
14 -147 17 -24 42 -67 55 -96 14 -30 26 -46 29 -37 12 39 19 81 22 148 l3 73
-55 84 c-56 86 -60 89 -67 77z"/>
<path d="M3553 4809 c-18 -12 -33 -27 -33 -34 0 -7 -9 -15 -20 -18 -18 -5 -20
-14 -21 -124 -1 -65 0 -125 1 -133 7 -54 -69 124 -85 197 -3 17 -12 36 -18 41
-12 10 -154 72 -164 72 -20 0 29 -33 83 -56 59 -25 65 -30 75 -68 6 -23 20
-69 31 -103 23 -74 37 -190 26 -228 -4 -15 -16 -37 -28 -50 -11 -12 -18 -24
-15 -27 16 -16 -92 -65 -184 -83 -18 -4 -67 -23 -109 -43 -96 -46 -161 -52
-227 -23 -48 21 -63 22 -51 2 15 -24 133 -92 190 -110 97 -30 130 -35 121 -21
-8 13 17 10 59 -6 11 -4 16 -1 16 10 0 15 3 15 33 0 17 -9 29 -13 25 -9 -10
11 22 34 46 35 19 0 19 1 -2 23 -14 15 -19 30 -16 44 6 21 8 22 34 8 25 -13
29 -13 35 2 4 11 -2 23 -17 35 l-23 18 30 0 c17 0 25 4 19 8 -18 12 -12 42 8
42 11 0 17 4 14 9 -3 5 10 18 30 30 29 17 33 24 25 38 -8 14 -3 25 21 50 33
34 32 29 43 203 4 74 8 96 21 155 9 38 28 57 42 43 7 -7 13 0 17 25 12 61 5
70 -32 46z m-341 -741 c-19 -20 -32 -23 -90 -21 -37 0 -78 6 -92 11 -21 9 -15
11 40 12 36 1 83 5 105 9 60 13 61 13 37 -11z"/>
<path d="M3756 4779 c-15 -73 -19 -176 -7 -183 6 -4 11 -20 11 -36 0 -32 29
-100 42 -100 4 0 8 2 8 5 0 32 -33 313 -39 328 -7 18 -9 16 -15 -14z"/>
<path d="M3327 4702 c3 -12 -1 -22 -11 -25 -27 -10 -18 -44 37 -153 54 -109
73 -118 38 -20 -11 31 -15 53 -9 50 8 -5 9 -1 3 12 -4 10 -15 48 -24 83 -9 36
-21 66 -28 68 -7 3 -10 -3 -6 -15z"/>
<path d="M2321 4404 c-1 -22 6 -63 14 -90 8 -27 15 -89 16 -139 1 -78 2 -85
11 -55 17 59 5 228 -19 280 l-21 45 -1 -41z"/>
<path d="M3795 4420 c3 -5 8 -10 11 -10 2 0 4 5 4 10 0 6 -5 10 -11 10 -5 0
-7 -4 -4 -10z"/>
<path d="M3790 4386 c0 -8 5 -18 10 -21 6 -3 10 1 10 9 0 8 -4 18 -10 21 -5 3
-10 -1 -10 -9z"/>
<path d="M3795 4197 c3 -6 -5 -17 -17 -22 -12 -6 -32 -30 -45 -55 -14 -28 -83
-104 -185 -204 -90 -88 -127 -127 -83 -88 104 91 315 304 332 334 15 28 17 48
3 48 -5 0 -7 -6 -5 -13z"/>
<path d="M1795 3560 c-10 -11 -14 -20 -9 -20 5 0 15 9 22 20 7 11 11 20 9 20
-2 0 -12 -9 -22 -20z"/>
<path d="M2360 3399 c0 -5 5 -7 10 -4 6 3 10 8 10 11 0 2 -4 4 -10 4 -5 0 -10
-5 -10 -11z"/>
<path d="M2095 3340 c-3 -5 -1 -10 4 -10 6 0 11 5 11 10 0 6 -2 10 -4 10 -3 0
-8 -4 -11 -10z"/>
<path d="M2230 3298 c-12 -22 -12 -22 6 -6 10 10 15 20 12 24 -4 3 -12 -5 -18
-18z"/>
<path d="M4560 509 c0 -5 5 -7 10 -4 6 3 10 8 10 11 0 2 -4 4 -10 4 -5 0 -10
-5 -10 -11z"/>
<path d="M4540 465 c0 -8 2 -15 4 -15 2 0 6 7 10 15 3 8 1 15 -4 15 -6 0 -10
-7 -10 -15z"/>
<path d="M4502 445 c0 -16 2 -22 5 -12 2 9 2 23 0 30 -3 6 -5 -1 -5 -18z"/>
<path d="M4521 423 c-1 -6 -4 -20 -7 -30 -5 -17 -5 -17 6 0 6 10 9 23 6 30 -3
9 -5 9 -5 0z"/>
<path d="M4485 340 c-5 -21 -3 -36 5 -43 10 -9 11 -6 6 16 -4 19 -3 26 4 22
12 -8 13 5 1 24 -6 10 -11 5 -16 -19z"/>
<path d="M4512 260 c0 -19 2 -27 5 -17 2 9 2 25 0 35 -3 9 -5 1 -5 -18z"/>
<path d="M4421 204 c0 -11 3 -14 6 -6 3 7 2 16 -1 19 -3 4 -6 -2 -5 -13z"/>
<path d="M4515 200 c-3 -5 -1 -10 4 -10 6 0 11 5 11 10 0 6 -2 10 -4 10 -3 0
-8 -4 -11 -10z"/>
<path d="M5926 6625 c4 -8 8 -15 10 -15 2 0 4 7 4 15 0 8 -4 15 -10 15 -5 0
-7 -7 -4 -15z"/>
<path d="M2517 2760 c-9 -47 -35 -170 -57 -275 -23 -104 -45 -241 -50 -303 -6
-63 -29 -211 -52 -330 l-42 -217 -1 -395 c-1 -365 -3 -402 -22 -480 -12 -47
-18 -89 -13 -93 4 -5 45 -9 90 -10 l83 -2 9 30 c24 76 173 452 185 467 13 14
13 53 -1 290 -9 150 -23 390 -31 533 -17 292 -27 418 -55 650 -11 88 -21 173
-22 190 -2 20 -9 2 -21 -55z"/>
<path d="M2320 2315 c0 -14 5 -25 10 -25 6 0 10 11 10 25 0 14 -4 25 -10 25
-5 0 -10 -11 -10 -25z"/>
<path d="M2326 2265 c-3 -8 -1 -15 4 -15 6 0 10 7 10 15 0 8 -2 15 -4 15 -2 0
-6 -7 -10 -15z"/>
<path d="M2236 1634 c-8 -61 -7 -308 2 -358 4 -21 7 61 7 183 0 121 -1 221 -1
221 -1 0 -4 -21 -8 -46z"/>
<path d="M1661 1588 c-1 -16 4 -28 9 -28 12 0 12 8 0 35 -8 18 -9 17 -9 -7z"/>
<path d="M1641 1394 c0 -11 3 -14 6 -6 3 7 2 16 -1 19 -3 4 -6 -2 -5 -13z"/>
<path d="M1657 1349 c4 -13 8 -18 11 -10 2 7 -1 18 -6 23 -8 8 -9 4 -5 -13z"/>
<path d="M565 1251 c9 -30 -25 -47 -143 -69 -57 -11 -106 -23 -109 -26 -13
-13 53 -5 155 18 150 34 192 39 227 26 35 -13 133 -77 156 -102 9 -10 20 -18
25 -18 4 0 -5 13 -21 30 -37 39 -155 110 -183 110 -12 0 -42 12 -68 26 -43 24
-46 25 -39 5z"/>
<path d="M2252 1065 c-1 -95 -9 -218 -18 -279 -13 -89 -14 -110 -3 -117 18
-11 29 -2 28 24 0 21 -1 21 -9 2 -8 -19 -9 -19 -9 -1 -1 11 6 85 15 166 13
115 14 169 7 260 l-10 115 -1 -170z"/>
<path d="M2663 1105 c0 -22 2 -30 4 -17 2 12 2 30 0 40 -3 9 -5 -1 -4 -23z"/>
<path d="M1642 1095 c0 -16 2 -22 5 -12 2 9 2 23 0 30 -3 6 -5 -1 -5 -18z"/>
<path d="M2726 1034 c3 -39 9 -84 14 -100 11 -35 3 67 -11 131 -6 30 -7 23 -3
-31z"/>
<path d="M2671 1029 c1 -19 5 -47 10 -64 5 -20 6 -9 2 30 -6 66 -14 88 -12 34z"/>
<path d="M495 948 c-63 -21 -108 -30 -150 -30 -48 1 -56 -1 -41 -10 27 -15
127 -3 219 27 107 35 157 33 201 -5 19 -17 51 -63 72 -103 35 -68 36 -75 23
-102 -22 -47 -85 -83 -156 -90 -54 -6 -64 -5 -70 11 -10 25 32 56 66 48 21 -5
24 -4 14 6 -10 11 -9 16 5 26 16 12 15 13 -4 14 -30 0 -101 -56 -120 -95 -8
-18 -31 -52 -51 -74 -19 -23 -33 -44 -31 -47 11 -10 35 9 70 57 20 27 39 45
43 39 9 -15 98 -12 150 6 44 14 48 14 91 -7 59 -28 67 -18 15 19 -44 32 -43
38 16 61 25 10 44 34 92 121 34 60 61 113 61 117 0 5 -6 17 -13 27 -12 16 -13
14 -9 -17 3 -28 -4 -47 -30 -89 -19 -29 -45 -70 -57 -91 -13 -20 -31 -42 -42
-47 -17 -9 -18 -8 -13 18 4 19 -1 43 -15 70 -15 30 -17 42 -8 46 9 5 9 7 -1
12 -7 3 -36 30 -66 60 -52 54 -54 54 -112 53 -38 0 -91 -11 -149 -31z"/>
<path d="M2692 875 c0 -16 2 -22 5 -12 2 9 2 23 0 30 -3 6 -5 -1 -5 -18z"/>
<path d="M1777 660 c-4 -129 -14 -298 -22 -375 -27 -244 -27 -239 -5 -161 26
95 52 379 50 556 -1 249 -16 237 -23 -20z"/>
<path d="M2752 855 c0 -16 2 -22 5 -12 2 9 2 23 0 30 -3 6 -5 -1 -5 -18z"/>
<path d="M2267 796 c-4 -38 -6 -71 -3 -73 6 -7 19 101 14 123 -2 11 -7 -12
-11 -50z"/>
<path d="M5652 844 c10 -10 20 -16 22 -13 3 3 -5 11 -17 18 -21 13 -21 12 -5
-5z"/>
<path d="M2766 525 c3 -165 7 -351 10 -413 5 -105 7 -112 26 -112 19 0 20 4
13 56 -4 36 -3 60 5 69 7 9 8 15 0 20 -5 3 -9 21 -9 38 2 30 2 31 6 5 2 -16 9
-28 15 -28 5 0 8 7 4 15 -3 8 -8 46 -10 83 -3 48 -3 55 3 27 l7 -40 6 40 c8
49 0 -148 -8 -227 -4 -35 -3 -58 3 -58 6 0 13 48 16 107 9 135 7 277 -2 243
-4 -14 -13 -25 -21 -25 -8 0 -17 -11 -21 -25 l-6 -25 -12 28 c-14 37 -14 60 1
51 8 -5 9 0 5 17 -4 13 -7 33 -8 44 l0 20 -10 -20 c-6 -13 -8 31 -6 130 2 83
1 179 -3 215 -4 36 -6 -70 -4 -235z m41 -287 c-3 -7 -5 -2 -5 12 0 14 2 19 5
13 2 -7 2 -19 0 -25z"/>
<path d="M5566 795 c-11 -8 -17 -17 -14 -20 2 -3 13 4 23 15 21 23 18 25 -9 5z"/>
<path d="M2801 714 c0 -11 3 -14 6 -6 3 7 2 16 -1 19 -3 4 -6 -2 -5 -13z"/>
<path d="M3605 690 c-4 -12 -5 -24 -2 -27 3 -2 8 5 12 17 4 12 5 24 2 27 -3 2
-8 -5 -12 -17z"/>
<path d="M5490 689 c0 -5 5 -7 10 -4 6 3 10 8 10 11 0 2 -4 4 -10 4 -5 0 -10
-5 -10 -11z"/>
<path d="M5928 694 c-11 -16 -6 -66 5 -55 5 5 7 21 5 37 -2 17 -6 24 -10 18z"/>
<path d="M2713 615 c0 -33 2 -45 4 -27 2 18 2 45 0 60 -2 15 -4 0 -4 -33z"/>
<path d="M4340 660 c0 -5 5 -10 11 -10 5 0 7 5 4 10 -3 6 -8 10 -11 10 -2 0
-4 -4 -4 -10z"/>
<path d="M4371 654 c0 -11 3 -14 6 -6 3 7 2 16 -1 19 -3 4 -6 -2 -5 -13z"/>
<path d="M5145 650 c-3 -6 1 -7 9 -4 18 7 21 14 7 14 -6 0 -13 -4 -16 -10z"/>
<path d="M3566 594 c-4 -9 -4 -19 -1 -22 2 -3 7 3 11 12 4 9 4 19 1 22 -2 3
-7 -3 -11 -12z"/>
<path d="M5367 583 c-4 -3 -7 -11 -7 -17 0 -6 5 -5 12 2 6 6 9 14 7 17 -3 3
-9 2 -12 -2z"/>
<path d="M5628 573 c7 -3 16 -2 19 1 4 3 -2 6 -13 5 -11 0 -14 -3 -6 -6z"/>
<path d="M5790 570 c0 -5 5 -10 10 -10 6 0 10 5 10 10 0 6 -4 10 -10 10 -5 0
-10 -4 -10 -10z"/>
<path d="M5588 563 c7 -3 16 -2 19 1 4 3 -2 6 -13 5 -11 0 -14 -3 -6 -6z"/>
<path d="M1535 530 c4 -14 14 -32 22 -40 12 -12 11 -7 -2 20 -22 45 -29 52
-20 20z"/>
<path d="M989 435 c-32 -65 -61 -113 -77 -123 -19 -13 -54 -18 -136 -20 -123
-4 -163 -12 -101 -22 79 -12 219 -6 245 11 24 16 63 86 111 196 41 97 11 66
-42 -42z"/>
<path d="M1506 515 c4 -8 11 -15 16 -15 6 0 5 6 -2 15 -7 8 -14 15 -16 15 -2
0 -1 -7 2 -15z"/>
<path d="M2701 434 c1 -54 5 -126 9 -159 4 -35 5 5 2 95 -5 174 -13 216 -11
64z"/>
<path d="M4970 515 c-17 -21 -9 -27 13 -10 10 7 14 16 9 19 -5 3 -15 -1 -22
-9z"/>
<path d="M4256 483 c-6 -14 -5 -15 5 -6 7 7 10 15 7 18 -3 3 -9 -2 -12 -12z"/>
<path d="M1520 479 c0 -5 5 -7 10 -4 6 3 10 8 10 11 0 2 -4 4 -10 4 -5 0 -10
-5 -10 -11z"/>
<path d="M5556 459 c-11 -13 -15 -27 -10 -37 6 -14 8 -13 11 6 3 12 11 22 19
22 15 0 19 16 6 24 -5 3 -16 -4 -26 -15z"/>
<path d="M4271 454 c0 -11 3 -14 6 -6 3 7 2 16 -1 19 -3 4 -6 -2 -5 -13z"/>
<path d="M5118 463 c6 -2 18 -2 25 0 6 3 1 5 -13 5 -14 0 -19 -2 -12 -5z"/>
<path d="M1422 440 c0 -14 2 -19 5 -12 2 6 2 18 0 25 -3 6 -5 1 -5 -13z"/>
<path d="M1594 444 c9 -8 17 -30 17 -47 2 -30 2 -30 6 -5 5 29 -11 68 -28 68
-6 0 -3 -7 5 -16z"/>
<path d="M4246 447 c3 -10 9 -15 12 -12 3 3 0 11 -7 18 -10 9 -11 8 -5 -6z"/>
<path d="M5053 453 c9 -2 23 -2 30 0 6 3 -1 5 -18 5 -16 0 -22 -2 -12 -5z"/>
<path d="M1541 426 c12 -26 56 -41 56 -19 0 7 -9 13 -19 13 -10 0 -21 7 -24
15 -4 8 -10 15 -15 15 -5 0 -4 -11 2 -24z"/>
<path d="M4988 443 c7 -3 16 -2 19 1 4 3 -2 6 -13 5 -11 0 -14 -3 -6 -6z"/>
<path d="M4918 433 c6 -2 18 -2 25 0 6 3 1 5 -13 5 -14 0 -19 -2 -12 -5z"/>
<path d="M4285 421 c-3 -5 -1 -12 5 -16 5 -3 10 1 10 9 0 18 -6 21 -15 7z"/>
<path d="M4241 404 c0 -11 3 -14 6 -6 3 7 2 16 -1 19 -3 4 -6 -2 -5 -13z"/>
<path d="M4190 389 c-7 -11 -10 -23 -7 -25 2 -2 9 7 15 21 14 30 7 33 -8 4z"/>
<path d="M4270 381 c0 -5 -3 -16 -6 -25 -3 -9 -2 -16 4 -16 5 0 12 11 14 25 3
14 1 25 -3 25 -5 0 -9 -4 -9 -9z"/>
<path d="M5836 381 c-4 -5 0 -11 6 -14 10 -3 10 -9 -1 -28 -10 -16 -10 -24 -3
-27 7 -2 -1 -14 -17 -28 -35 -29 -53 -32 -22 -3 12 12 20 24 17 27 -9 8 -46
-29 -46 -45 0 -8 -5 -11 -11 -8 -6 4 -9 0 -7 -11 3 -19 -58 -68 -73 -58 -5 3
-9 2 -9 -3 0 -17 -177 -100 -188 -88 -3 2 6 9 19 14 17 7 19 10 7 10 -10 1
-18 7 -18 15 0 9 -8 12 -27 8 -20 -4 -23 -7 -10 -10 9 -2 17 -7 17 -11 0 -14
-48 -34 -65 -27 -9 3 -24 -1 -33 -10 -15 -15 -14 -16 7 -9 16 5 21 4 17 -4 -4
-6 -3 -11 3 -11 5 0 13 5 16 10 3 6 16 10 28 10 16 0 7 -9 -30 -30 -29 -17
-53 -35 -53 -41 0 -12 365 -8 395 4 16 7 17 7 5 -2 -12 -9 -9 -10 15 -5 17 4
38 11 49 16 12 7 16 7 12 0 -8 -13 17 -22 65 -22 31 0 39 4 39 18 0 13 -2 14
-9 3 -6 -9 -11 -10 -15 -2 -4 6 -17 11 -29 10 -21 0 -21 -1 -2 -9 22 -9 6 -13
-18 -4 -12 4 -12 10 -3 30 6 13 15 24 19 24 5 0 6 -4 3 -9 -8 -13 29 -20 45
-9 11 8 10 9 -3 4 -22 -7 -22 2 -3 28 8 11 15 32 15 47 l0 27 -62 -34 c-74
-40 -85 -41 -109 -12 -16 17 -19 18 -19 5 0 -10 -6 -17 -14 -17 -7 0 -16 -9
-19 -20 -3 -12 -13 -20 -24 -19 -15 1 -15 2 -2 6 10 2 15 11 13 21 -3 12 11
27 46 49 41 26 48 28 39 11 -14 -26 -6 -33 14 -13 9 9 18 14 21 13 2 -2 8 0
12 4 4 4 -1 10 -10 14 -22 8 -20 17 7 33 17 10 19 11 10 0 -21 -21 -15 -34 6
-15 13 11 27 15 40 11 12 -4 21 -2 21 4 0 6 8 11 18 12 11 0 12 2 4 6 -7 3
-19 -1 -27 -7 -12 -10 -15 -9 -15 7 0 11 11 25 25 31 22 10 25 18 25 66 0 48
-2 54 -17 49 -13 -5 -15 -2 -10 11 4 11 3 15 -4 11 -6 -4 -8 -13 -5 -20 3 -8
-6 -21 -19 -29 -31 -21 -51 -21 -31 0 20 19 20 22 2 40 -8 8 -17 10 -20 5z
m-163 -311 c-10 -11 -27 -20 -38 -19 -17 1 -16 2 5 9 14 4 21 9 15 9 -5 1 -3
6 5 11 25 16 31 11 13 -10z"/>
<path d="M1415 370 c3 -5 11 -10 16 -10 6 0 7 5 4 10 -3 6 -11 10 -16 10 -6 0
-7 -4 -4 -10z"/>
<path d="M4215 370 c3 -5 8 -10 11 -10 2 0 4 5 4 10 0 6 -5 10 -11 10 -5 0 -7
-4 -4 -10z"/>
<path d="M5790 372 c0 -5 7 -16 16 -23 14 -12 16 -11 13 5 -4 20 -29 35 -29
18z"/>
<path d="M1455 360 c-3 -5 -1 -10 4 -10 6 0 11 5 11 10 0 6 -2 10 -4 10 -3 0
-8 -4 -11 -10z"/>
<path d="M1584 349 c0 -10 4 -19 8 -19 4 0 8 6 8 14 0 8 -4 17 -8 20 -4 2 -8
-4 -8 -15z"/>
<path d="M1480 352 c0 -5 16 -9 35 -10 20 -1 40 -4 45 -7 6 -4 10 -2 10 3 0 5
-14 12 -31 16 -43 8 -59 8 -59 -2z"/>
<path d="M5572 314 c-12 -8 -22 -20 -22 -25 0 -6 7 -3 16 5 10 10 24 14 40 10
28 -7 32 1 6 15 -14 7 -25 6 -40 -5z"/>
<path d="M4141 299 c0 -9 6 -22 14 -29 10 -9 15 -9 15 -1 0 6 -4 11 -9 11 -5
0 -12 8 -14 18 -4 14 -5 14 -6 1z"/>
<path d="M4175 290 c4 -6 11 -8 16 -5 14 9 11 15 -7 15 -8 0 -12 -5 -9 -10z"/>
<path d="M4611 284 c0 -11 3 -14 6 -6 3 7 2 16 -1 19 -3 4 -6 -2 -5 -13z"/>
<path d="M1348 264 c6 -3 10 -10 7 -14 -3 -5 18 -16 47 -25 60 -17 69 -18 48
-5 -12 8 -11 10 7 10 45 0 31 18 -20 24 -28 4 -63 9 -77 12 -14 2 -19 1 -12
-2z m62 -24 c0 -5 -7 -7 -15 -4 -8 4 -15 8 -15 10 0 2 7 4 15 4 8 0 15 -4 15
-10z"/>
<path d="M5580 226 c0 -18 6 -38 13 -44 15 -13 60 -4 51 10 -3 5 -12 4 -20 -3
-12 -10 -17 -9 -27 0 -9 10 -8 11 6 6 9 -4 17 -3 17 3 0 6 -6 12 -12 15 -7 3
6 3 28 0 23 -3 44 -1 47 4 4 6 -4 8 -20 5 -16 -3 -30 1 -37 10 -6 8 -19 17
-28 21 -15 5 -18 1 -18 -27z"/>
<path d="M4178 245 c-3 -6 5 -24 18 -40 19 -24 26 -27 33 -16 6 9 5 21 -2 33
-7 10 -13 14 -15 8 -6 -16 -20 -12 -24 8 -2 9 -6 12 -10 7z"/>
<path d="M5502 222 c-1 -24 0 -25 9 -9 7 11 7 23 2 28 -5 5 -9 -3 -11 -19z"/>
<path d="M1514 228 c-3 -4 6 -8 20 -8 20 0 26 -5 27 -22 0 -22 1 -22 9 -3 5
11 9 23 9 26 1 10 -59 17 -65 7z"/>
<path d="M2397 228 c-2 -7 -1 -22 4 -33 6 -16 8 -14 8 13 1 33 -4 41 -12 20z"/>
<path d="M5710 225 c-20 -24 -6 -28 15 -5 10 11 13 20 8 20 -6 0 -16 -7 -23
-15z"/>
<path d="M1495 200 c11 -5 27 -9 35 -9 13 -1 13 0 0 9 -8 5 -24 9 -35 9 l-20
0 20 -9z"/>
<path d="M2005 186 c-3 -9 -8 -24 -12 -33 -3 -10 -5 -24 -4 -32 1 -7 -2 -10
-8 -7 -6 4 -13 -9 -17 -34 -5 -28 -10 -37 -15 -28 -7 10 -9 10 -8 -2 1 -29 14
-45 40 -48 19 -2 28 2 32 15 2 10 8 26 12 36 4 10 3 17 -4 17 -6 0 -11 -9 -11
-21 0 -11 -4 -18 -9 -14 -5 3 -11 -3 -13 -12 -3 -15 -5 -16 -10 -3 -5 14 1 40
33 138 6 19 8 36 5 39 -3 3 -8 -2 -11 -11z"/>
<path d="M5520 190 c0 -5 5 -10 10 -10 6 0 10 5 10 10 0 6 -4 10 -10 10 -5 0
-10 -4 -10 -10z"/>
<path d="M2724 95 c0 -55 1 -76 3 -47 2 29 2 74 0 100 -2 26 -3 2 -3 -53z"/>
<path d="M5915 180 c-4 -6 -16 -8 -28 -5 -19 5 -20 5 -4 -5 13 -8 22 -7 39 4
12 9 17 16 11 16 -7 0 -15 -5 -18 -10z"/>
<path d="M5460 165 c-7 -8 -8 -15 -2 -15 5 0 15 7 22 15 7 8 8 15 2 15 -5 0
-15 -7 -22 -15z"/>
<path d="M2379 162 c-1 -4 0 -15 1 -26 1 -10 -4 -22 -11 -27 -10 -6 -10 -11 0
-23 9 -11 10 -20 4 -28 -6 -7 -13 -23 -16 -36 -4 -16 -1 -22 13 -22 14 0 18
12 24 65 4 36 9 71 12 79 3 7 -2 16 -10 19 -9 4 -17 3 -17 -1z"/>
<path d="M4230 153 c0 -12 5 -25 10 -28 13 -8 13 15 0 35 -8 12 -10 11 -10 -7z"/>
<path d="M5565 160 c6 -10 -13 -15 -48 -12 -16 2 -17 0 -3 -13 16 -16 41 -21
31 -6 -3 6 11 13 32 17 31 6 34 8 18 15 -28 11 -37 11 -30 -1z"/>
<path d="M5854 143 c-10 -10 -21 -19 -26 -19 -4 -1 -12 -2 -18 -3 -5 0 -10 -5
-10 -10 0 -16 54 7 68 29 15 25 9 26 -14 3z"/>
<path d="M1353 116 c3 -8 11 -34 18 -57 16 -57 34 -76 25 -28 -7 38 -33 99
-43 99 -3 0 -3 -6 0 -14z"/>
<path d="M5402 118 c5 -15 28 -23 28 -10 0 5 -7 13 -16 16 -10 4 -14 1 -12 -6z"/>
<path d="M2350 78 c0 -3 -7 -22 -15 -42 -8 -20 -11 -36 -6 -36 11 0 34 71 26
79 -3 2 -5 2 -5 -1z"/>
<path d="M4715 39 c-4 -11 -4 -23 -1 -26 3 -4 6 -1 6 6 0 7 5 9 10 6 6 -3 10
-1 10 4 0 6 5 11 10 11 14 0 12 -28 -2 -33 -7 -2 -1 -4 14 -4 24 0 26 2 17 18
-8 16 -39 39 -53 39 -2 0 -8 -9 -11 -21z"/>
<path d="M5347 30 c-10 -17 -13 -30 -8 -30 6 0 11 7 11 15 0 9 7 18 15 21 8 4
15 10 15 15 0 18 -16 8 -33 -21z"/>
<path d="M2491 28 c-1 -16 4 -28 9 -28 12 0 12 8 0 35 -8 18 -9 17 -9 -7z"/>
<path d="M1920 10 c0 -5 5 -10 11 -10 5 0 7 5 4 10 -3 6 -8 10 -11 10 -2 0 -4
-4 -4 -10z"/>
</g>
</svg>
